<svg width="196" height="34" viewBox="0 0 196 34" fill="none" xmlns="http://www.w3.org/2000/svg">
<path d="M13.572 7.56C16.836 7.56 19.236 8.22 20.772 9.54C22.332 10.86 23.112 12.588 23.112 14.724C23.112 15.444 23.016 16.248 22.824 17.136C22.368 19.104 21.516 20.832 20.268 22.32C19.02 23.784 17.484 24.924 15.66 25.74C13.86 26.532 11.904 26.928 9.792 26.928C6.456 26.928 3.984 26.268 2.376 24.948C0.792 23.604 0 21.828 0 19.62C0 18.876 0.096 18.048 0.288 17.136C0.744 15.264 1.608 13.608 2.88 12.168C4.176 10.704 5.748 9.576 7.596 8.784C9.468 7.968 11.46 7.56 13.572 7.56ZM13.464 10.764C12.96 10.764 12.42 11.22 11.844 12.132C11.292 13.02 10.632 14.712 9.864 17.208C9.096 19.704 8.712 21.456 8.712 22.464C8.712 22.992 8.796 23.352 8.964 23.544C9.132 23.712 9.36 23.796 9.648 23.796C10.152 23.844 10.668 23.412 11.196 22.5C11.748 21.588 12.432 19.812 13.248 17.172C13.992 14.844 14.364 13.152 14.364 12.096C14.364 11.592 14.28 11.244 14.112 11.052C13.968 10.86 13.752 10.764 13.464 10.764Z" fill="#101010"/>
<path d="M44.6299 21.636C44.5819 21.732 44.5579 21.876 44.5579 22.068C44.5579 22.236 44.5939 22.368 44.6659 22.464C44.7619 22.56 44.8819 22.608 45.0259 22.608C45.3139 22.608 45.5539 22.488 45.7459 22.248C45.9619 21.984 46.1059 21.852 46.1779 21.852C46.2979 21.852 46.3939 21.936 46.4659 22.104C46.5379 22.248 46.5739 22.428 46.5739 22.644C46.5979 23.34 46.3699 24.024 45.8899 24.696C45.4099 25.344 44.7019 25.884 43.7659 26.316C42.8539 26.724 41.7499 26.928 40.4539 26.928C38.8699 26.928 37.6099 26.568 36.6739 25.848C35.7379 25.104 35.2579 24.12 35.2339 22.896C35.2339 22.008 35.4499 21.012 35.8819 19.908L37.8619 14.724C37.9819 14.412 38.0419 14.16 38.0419 13.968C38.0419 13.656 37.9339 13.416 37.7179 13.248C37.5259 13.056 37.2859 12.96 36.9979 12.96C36.5419 12.96 36.0739 13.176 35.5939 13.608C35.1379 14.016 34.7659 14.688 34.4779 15.624V15.552L32.2099 22.86C32.1379 23.148 32.1019 23.4 32.1019 23.616C32.1019 23.928 32.1619 24.18 32.2819 24.372C32.4019 24.54 32.5699 24.708 32.7859 24.876C32.9539 25.044 33.0739 25.188 33.1459 25.308C33.2179 25.404 33.2299 25.536 33.1819 25.704C33.0619 26.016 32.8219 26.244 32.4619 26.388C32.1019 26.532 31.5499 26.604 30.8059 26.604H22.5979C21.9739 26.604 21.5179 26.508 21.2299 26.316C20.9419 26.1 20.8459 25.824 20.9419 25.488C21.0379 25.2 21.2899 24.948 21.6979 24.732C22.0579 24.54 22.3579 24.312 22.5979 24.048C22.8379 23.784 23.0419 23.364 23.2099 22.788L28.6819 4.824C28.7539 4.608 28.7899 4.428 28.7899 4.284C28.7899 4.02 28.7179 3.804 28.5739 3.636C28.4539 3.468 28.2859 3.3 28.0699 3.132C27.8299 2.94 27.6499 2.772 27.5299 2.628C27.4339 2.484 27.4219 2.292 27.4939 2.052C27.6379 1.5 28.3939 1.02 29.7619 0.611999C31.1299 0.204 32.5579 0 34.0459 0C35.4379 0 36.4579 0.264 37.1059 0.792001C37.7779 1.32 38.1139 2.04 38.1139 2.952C38.1139 3.48 38.0299 3.996 37.8619 4.5L35.9179 10.836C36.8539 9.612 37.8379 8.76 38.8699 8.28C39.9259 7.8 41.0659 7.56 42.2899 7.56C43.7539 7.56 44.9299 8.004 45.8179 8.892C46.7299 9.78 47.1859 10.932 47.1859 12.348C47.1859 13.092 47.0659 13.824 46.8259 14.544L44.6299 21.636Z" fill="#101010"/>
<path d="M82.3565 21.636C82.3085 21.732 82.2845 21.876 82.2845 22.068C82.2845 22.236 82.3205 22.368 82.3925 22.464C82.4885 22.56 82.6085 22.608 82.7525 22.608C83.0405 22.608 83.2805 22.488 83.4725 22.248C83.6885 21.984 83.8325 21.852 83.9045 21.852C84.0245 21.852 84.1205 21.936 84.1925 22.104C84.2645 22.248 84.3005 22.428 84.3005 22.644C84.3245 23.34 84.0965 24.024 83.6165 24.696C83.1365 25.344 82.4285 25.884 81.4925 26.316C80.5805 26.724 79.4765 26.928 78.1805 26.928C76.5965 26.928 75.3365 26.568 74.4005 25.848C73.4645 25.104 72.9845 24.12 72.9605 22.896C72.9605 22.008 73.1765 21.012 73.6085 19.908L75.5885 14.724C75.7085 14.412 75.7685 14.16 75.7685 13.968C75.7685 13.656 75.6605 13.416 75.4445 13.248C75.2525 13.056 75.0125 12.96 74.7245 12.96C74.3165 12.96 73.8965 13.14 73.4645 13.5C73.0325 13.86 72.6485 14.424 72.3125 15.192L70.3325 21.636C70.2845 21.732 70.2605 21.876 70.2605 22.068C70.2605 22.236 70.2965 22.368 70.3685 22.464C70.4645 22.56 70.5845 22.608 70.7285 22.608C71.0165 22.608 71.2565 22.488 71.4485 22.248C71.6645 21.984 71.8085 21.852 71.8805 21.852C72.0005 21.852 72.0965 21.936 72.1685 22.104C72.2405 22.248 72.2765 22.428 72.2765 22.644C72.3005 23.34 72.0725 24.024 71.5925 24.696C71.1125 25.344 70.4045 25.884 69.4685 26.316C68.5565 26.724 67.4525 26.928 66.1565 26.928C64.5725 26.928 63.3125 26.568 62.3765 25.848C61.4405 25.104 60.9605 24.12 60.9365 22.896C60.9365 22.008 61.1525 21.012 61.5845 19.908L63.5645 14.724C63.6845 14.412 63.7445 14.16 63.7445 13.968C63.7445 13.656 63.6365 13.416 63.4205 13.248C63.2285 13.056 62.9885 12.96 62.7005 12.96C62.2925 12.96 61.8725 13.14 61.4405 13.5C61.0085 13.836 60.6485 14.388 60.3605 15.156L57.9845 22.86C57.8885 23.124 57.8405 23.376 57.8405 23.616C57.8405 23.904 57.9005 24.144 58.0205 24.336C58.1405 24.504 58.3085 24.684 58.5245 24.876C58.6925 25.02 58.8125 25.152 58.8845 25.272C58.9565 25.392 58.9685 25.536 58.9205 25.704C58.8245 26.016 58.5965 26.244 58.2365 26.388C57.8765 26.532 57.3125 26.604 56.5445 26.604H48.3365C47.7125 26.604 47.2685 26.508 47.0045 26.316C46.7165 26.1 46.6085 25.824 46.6805 25.488C46.7765 25.2 47.0285 24.948 47.4365 24.732C47.7965 24.54 48.0965 24.312 48.3365 24.048C48.5765 23.784 48.7805 23.364 48.9485 22.788L52.1525 12.384C52.2005 12.264 52.2245 12.096 52.2245 11.88C52.2245 11.616 52.1645 11.412 52.0445 11.268C51.9485 11.124 51.7805 10.944 51.5405 10.728C51.3005 10.536 51.1325 10.368 51.0365 10.224C50.9405 10.08 50.9285 9.888 51.0005 9.648C51.1445 9.096 51.9005 8.616 53.2685 8.208C54.6365 7.776 56.0645 7.56 57.5525 7.56C58.7285 7.56 59.6525 7.884 60.3245 8.532C61.0205 9.18 61.3565 10.068 61.3325 11.196C62.3165 9.828 63.3485 8.88 64.4285 8.352C65.5325 7.824 66.7205 7.56 67.9925 7.56C69.3845 7.56 70.5125 7.968 71.3765 8.784C72.2645 9.576 72.7565 10.62 72.8525 11.916C73.8845 10.284 74.9885 9.156 76.1645 8.532C77.3405 7.884 78.6245 7.56 80.0165 7.56C81.4805 7.56 82.6565 8.004 83.5445 8.892C84.4565 9.78 84.9125 10.932 84.9125 12.348C84.9125 13.092 84.7925 13.824 84.5525 14.544L82.3565 21.636Z" fill="#101010"/>
<path d="M104.572 7.56C105.628 7.56 106.468 7.992 107.092 8.856C107.74 9.696 108.064 10.848 108.064 12.312C108.064 13.584 107.836 14.952 107.38 16.416C106.492 19.368 105.064 22.152 103.096 24.768C101.152 27.384 98.9076 29.484 96.3636 31.068C93.8436 32.652 91.3236 33.444 88.8036 33.444C87.5556 33.444 86.4756 33.228 85.5636 32.796C84.6756 32.364 84.0036 31.788 83.5476 31.068C83.0676 30.348 82.8276 29.58 82.8276 28.764C82.8276 28.404 82.8876 28.008 83.0076 27.576C83.2236 26.904 83.5836 26.388 84.0876 26.028C84.5916 25.668 85.1916 25.488 85.8876 25.488C86.9916 25.488 87.8916 25.86 88.5876 26.604C89.3076 27.372 89.7636 28.416 89.9556 29.736C91.4916 29.664 92.9076 29.004 94.2036 27.756C92.9796 27.54 92.0676 27.132 91.4676 26.532C90.8916 25.908 90.4956 24.948 90.2796 23.652L88.8396 14.832C88.7676 14.376 88.6596 14.064 88.5156 13.896C88.3956 13.704 88.2276 13.608 88.0116 13.608C87.8436 13.608 87.6396 13.692 87.3996 13.86C87.1836 14.028 87.0276 14.112 86.9316 14.112C86.7396 14.112 86.6436 13.908 86.6436 13.5C86.6436 13.164 86.7036 12.804 86.8236 12.42C87.2556 11.052 88.0596 9.9 89.2356 8.964C90.4116 8.004 91.7796 7.524 93.3396 7.524C94.8756 7.524 96.0036 7.98 96.7236 8.892C97.4676 9.804 97.9476 11.208 98.1636 13.104L99.2436 21.024C99.3156 21.624 99.5316 21.924 99.8916 21.924C100.324 21.924 100.828 21.54 101.404 20.772C101.98 19.98 102.544 18.864 103.096 17.424C102.376 16.776 101.824 16.032 101.44 15.192C101.056 14.352 100.864 13.452 100.864 12.492C100.864 11.748 100.96 11.076 101.152 10.476C101.44 9.516 101.884 8.796 102.484 8.316C103.108 7.812 103.804 7.56 104.572 7.56Z" fill="#101010"/>
<path d="M122.504 0C125.072 0 126.992 0.396 128.264 1.188C129.56 1.956 130.208 2.904 130.208 4.032C130.208 4.944 129.824 5.652 129.056 6.156C128.312 6.636 127.328 6.876 126.104 6.876C124.976 6.876 124.1 6.6 123.476 6.048C122.852 5.496 122.54 4.812 122.54 3.996C122.54 3.492 122.696 2.964 123.008 2.412C122.288 2.412 121.688 2.592 121.208 2.952C120.728 3.288 120.356 3.876 120.092 4.716C119.948 5.244 119.876 5.736 119.876 6.192C119.876 6.768 119.972 7.224 120.164 7.56C120.38 7.872 120.68 8.028 121.064 8.028H123.188C124.436 8.028 125.06 8.412 125.06 9.18C125.06 9.276 125.036 9.42 124.988 9.612C124.844 10.14 124.544 10.536 124.088 10.8C123.656 11.064 122.996 11.196 122.108 11.196H121.028L117.464 22.86C117.392 23.148 117.356 23.4 117.356 23.616C117.356 23.928 117.416 24.18 117.536 24.372C117.656 24.54 117.824 24.708 118.04 24.876C118.208 25.044 118.328 25.188 118.4 25.308C118.472 25.404 118.484 25.536 118.436 25.704C118.316 26.016 118.076 26.244 117.716 26.388C117.356 26.532 116.804 26.604 116.06 26.604H107.852C107.228 26.604 106.772 26.508 106.484 26.316C106.196 26.1 106.1 25.824 106.196 25.488C106.292 25.2 106.544 24.948 106.952 24.732C107.312 24.54 107.612 24.312 107.852 24.048C108.092 23.784 108.296 23.364 108.464 22.788L111.272 13.572C111.392 13.212 111.452 12.84 111.452 12.456C111.452 11.976 111.344 11.604 111.128 11.34C110.936 11.052 110.636 10.74 110.228 10.404C109.964 10.188 109.76 10.008 109.616 9.864C109.496 9.696 109.436 9.504 109.436 9.288C109.412 8.832 109.568 8.508 109.904 8.316C110.264 8.124 110.936 8.028 111.92 8.028H112.82C112.652 7.428 112.568 6.828 112.568 6.228C112.568 5.628 112.676 5.004 112.892 4.356C113.348 3.132 114.32 2.1 115.808 1.26C117.32 0.42 119.552 0 122.504 0Z" fill="#101010"/>
<path d="M136.724 7.56C139.988 7.56 142.388 8.22 143.924 9.54C145.484 10.86 146.264 12.588 146.264 14.724C146.264 15.444 146.168 16.248 145.976 17.136C145.52 19.104 144.668 20.832 143.42 22.32C142.172 23.784 140.636 24.924 138.812 25.74C137.012 26.532 135.056 26.928 132.944 26.928C129.608 26.928 127.136 26.268 125.528 24.948C123.944 23.604 123.152 21.828 123.152 19.62C123.152 18.876 123.248 18.048 123.44 17.136C123.896 15.264 124.76 13.608 126.032 12.168C127.328 10.704 128.9 9.576 130.748 8.784C132.62 7.968 134.612 7.56 136.724 7.56ZM136.616 10.764C136.112 10.764 135.572 11.22 134.996 12.132C134.444 13.02 133.784 14.712 133.016 17.208C132.248 19.704 131.864 21.456 131.864 22.464C131.864 22.992 131.948 23.352 132.116 23.544C132.284 23.712 132.512 23.796 132.8 23.796C133.304 23.844 133.82 23.412 134.348 22.5C134.9 21.588 135.584 19.812 136.4 17.172C137.144 14.844 137.516 13.152 137.516 12.096C137.516 11.592 137.432 11.244 137.264 11.052C137.12 10.86 136.904 10.764 136.616 10.764Z" fill="#101010"/>
<path d="M160.349 7.56C163.613 7.56 166.013 8.22 167.549 9.54C169.109 10.86 169.889 12.588 169.889 14.724C169.889 15.444 169.793 16.248 169.601 17.136C169.145 19.104 168.293 20.832 167.045 22.32C165.797 23.784 164.261 24.924 162.437 25.74C160.637 26.532 158.681 26.928 156.569 26.928C153.233 26.928 150.761 26.268 149.153 24.948C147.569 23.604 146.777 21.828 146.777 19.62C146.777 18.876 146.873 18.048 147.065 17.136C147.521 15.264 148.385 13.608 149.657 12.168C150.953 10.704 152.525 9.576 154.373 8.784C156.245 7.968 158.237 7.56 160.349 7.56ZM160.241 10.764C159.737 10.764 159.197 11.22 158.621 12.132C158.069 13.02 157.409 14.712 156.641 17.208C155.873 19.704 155.489 21.456 155.489 22.464C155.489 22.992 155.573 23.352 155.741 23.544C155.909 23.712 156.137 23.796 156.425 23.796C156.929 23.844 157.445 23.412 157.973 22.5C158.525 21.588 159.209 19.812 160.025 17.172C160.769 14.844 161.141 13.152 161.141 12.096C161.141 11.592 161.057 11.244 160.889 11.052C160.745 10.86 160.529 10.764 160.241 10.764Z" fill="#101010"/>
<path d="M190.166 21.42C190.118 21.612 190.094 21.744 190.094 21.816C190.094 21.984 190.142 22.116 190.238 22.212C190.334 22.308 190.454 22.356 190.598 22.356C190.886 22.356 191.126 22.236 191.318 21.996C191.534 21.732 191.678 21.6 191.75 21.6C191.87 21.6 191.966 21.684 192.038 21.852C192.11 22.02 192.146 22.212 192.146 22.428C192.17 23.076 191.918 23.736 191.39 24.408C190.886 25.08 190.202 25.632 189.338 26.064C188.474 26.496 187.538 26.712 186.53 26.712C185.33 26.712 184.286 26.484 183.398 26.028C182.51 25.572 181.898 24.972 181.562 24.228C180.914 25.068 180.17 25.692 179.33 26.1C178.49 26.508 177.602 26.712 176.666 26.712C175.562 26.712 174.53 26.436 173.57 25.884C172.634 25.332 171.878 24.552 171.302 23.544C170.75 22.512 170.474 21.348 170.474 20.052C170.474 17.868 170.882 15.816 171.698 13.896C172.538 11.952 173.702 10.392 175.19 9.216C176.678 8.016 178.37 7.416 180.266 7.416C181.298 7.416 182.174 7.536 182.894 7.776C183.638 8.016 184.31 8.376 184.91 8.856L186.134 4.824C186.206 4.608 186.242 4.428 186.242 4.284C186.242 4.02 186.17 3.804 186.026 3.636C185.906 3.468 185.738 3.3 185.522 3.132C185.282 2.94 185.102 2.772 184.982 2.628C184.886 2.484 184.874 2.292 184.946 2.052C185.09 1.5 185.846 1.02 187.214 0.611999C188.582 0.204 190.01 0 191.498 0C192.89 0 193.91 0.264 194.558 0.792001C195.23 1.32 195.566 2.04 195.566 2.952C195.566 3.48 195.482 3.996 195.314 4.5L190.166 21.42ZM184.154 11.304C183.77 10.968 183.35 10.8 182.894 10.8C182.198 10.8 181.514 11.316 180.842 12.348C180.17 13.38 179.63 14.628 179.222 16.092C178.814 17.556 178.622 18.876 178.646 20.052C178.646 21.372 179.078 22.032 179.942 22.032C180.254 22.032 180.518 21.912 180.734 21.672C180.95 21.408 181.154 20.988 181.346 20.412L184.154 11.304Z" fill="#101010"/>
</svg>
